<?xml version="1.0" encoding="UTF-8" standalone="no"?>
<!-- Created with Inkscape (http://www.inkscape.org/) -->

<svg
   xmlns:dc="http://purl.org/dc/elements/1.1/"
   xmlns:cc="http://creativecommons.org/ns#"
   xmlns:rdf="http://www.w3.org/1999/02/22-rdf-syntax-ns#"
   xmlns:svg="http://www.w3.org/2000/svg"
   xmlns="http://www.w3.org/2000/svg"
   xmlns:sodipodi="http://sodipodi.sourceforge.net/DTD/sodipodi-0.dtd"
   xmlns:inkscape="http://www.inkscape.org/namespaces/inkscape"
   width="210mm"
   height="297mm"
   viewBox="0 0 210 297"
   version="1.1"
   id="svg8"
   inkscape:version="0.92.0 r"
   sodipodi:docname="art.svg">
  <defs
     id="defs2" />
  <sodipodi:namedview
     id="base"
     pagecolor="#ffffff"
     bordercolor="#666666"
     borderopacity="1.0"
     inkscape:pageopacity="1"
     inkscape:pageshadow="2"
     inkscape:zoom="1.2623761"
     inkscape:cx="171.67259"
     inkscape:cy="801.23505"
     inkscape:document-units="mm"
     inkscape:current-layer="layer1"
     showgrid="false"
     inkscape:window-width="1366"
     inkscape:window-height="709"
     inkscape:window-x="0"
     inkscape:window-y="0"
     inkscape:window-maximized="1" />
  <metadata
     id="metadata5">
    <rdf:RDF>
      <cc:Work
         rdf:about="">
        <dc:format>image/svg+xml</dc:format>
        <dc:type
           rdf:resource="http://purl.org/dc/dcmitype/StillImage" />
        <dc:title></dc:title>
      </cc:Work>
    </rdf:RDF>
  </metadata>
  <g
     inkscape:label="Layer 1"
     inkscape:groupmode="layer"
     id="layer1">
    <path
       sodipodi:nodetypes="cc"
       inkscape:connector-curvature="0"
       id="path4487"
       d="m 41.903142,93.676821 6.287746,-25"
       style="fill:none;fill-rule:evenodd;stroke:#000000;stroke-width:4;stroke-linecap:round;stroke-linejoin:miter;stroke-miterlimit:4;stroke-dasharray:none;stroke-opacity:1"
       inkscape:export-xdpi="299.78943"
       inkscape:export-ydpi="299.78943" />
    <path
       sodipodi:nodetypes="cc"
       inkscape:connector-curvature="0"
       id="path4487-3"
       d="M 51.903142,93.676821 64.478634,43.67682"
       style="fill:none;fill-rule:evenodd;stroke:#000000;stroke-width:4;stroke-linecap:round;stroke-linejoin:miter;stroke-miterlimit:4;stroke-dasharray:none;stroke-opacity:1"
       inkscape:export-xdpi="299.78943"
       inkscape:export-ydpi="299.78943" />
    <path
       sodipodi:nodetypes="cc"
       inkscape:connector-curvature="0"
       id="path4487-6"
       d="m 68.190888,68.676821 6.287746,-25"
       style="fill:none;fill-rule:evenodd;stroke:#000000;stroke-width:4;stroke-linecap:round;stroke-linejoin:miter;stroke-miterlimit:4;stroke-dasharray:none;stroke-opacity:1"
       inkscape:export-xdpi="299.78943"
       inkscape:export-ydpi="299.78943" />
    <path
       style="fill:none;fill-rule:evenodd;stroke:#000000;stroke-width:4;stroke-linecap:round;stroke-linejoin:miter;stroke-miterlimit:4;stroke-dasharray:none;stroke-opacity:1"
       d="m 33.194472,84.43035 c 0,0 25.082851,-4.509112 26.535356,-10.289876 1.452519,-5.780764 -4.021936,-6.598726 -2.741764,-11.786584 1.280167,-5.187858 12.928098,-3.686076 30.372934,-11.786588"
       id="path4519"
       inkscape:connector-curvature="0"
       sodipodi:nodetypes="czzc"
       inkscape:export-xdpi="299.78943"
       inkscape:export-ydpi="299.78943" />
    <g
       id="g4594"
       transform="matrix(0.64516129,0,0,0.64516129,12.940587,40.575829)"
       inkscape:export-xdpi="299.78943"
       inkscape:export-ydpi="299.78943">
      <g
         style="stroke-width:1.28571844"
         transform="matrix(0.77777525,0,0,0.7777753,11.527616,24.711116)"
         id="g4560">
        <circle
           style="color:#000000;display:inline;overflow:visible;visibility:visible;opacity:1;fill:#000000;fill-opacity:1;fill-rule:nonzero;stroke:none;stroke-width:1.92857766;stroke-linecap:round;stroke-linejoin:round;stroke-miterlimit:4;stroke-dasharray:none;stroke-dashoffset:0;stroke-opacity:1;marker:none;enable-background:accumulate"
           id="path4521"
           cx="33.067505"
           cy="114.25043"
           r="1" />
        <path
           style="color:#000000;display:inline;overflow:visible;visibility:visible;opacity:1;fill:none;fill-opacity:1;fill-rule:nonzero;stroke:#000000;stroke-width:1.92857766;stroke-linecap:round;stroke-linejoin:round;stroke-miterlimit:4;stroke-dasharray:none;stroke-dashoffset:0;stroke-opacity:1;marker:none;enable-background:accumulate"
           id="path4523"
           sodipodi:type="arc"
           sodipodi:cx="33.081745"
           sodipodi:cy="114.23618"
           sodipodi:rx="3.9856577"
           sodipodi:ry="3.9856575"
           sodipodi:start="4.712389"
           sodipodi:end="0"
           d="m 33.081745,110.25053 a 3.9856577,3.9856575 0 0 1 3.985658,3.98565"
           sodipodi:open="true" />
        <path
           style="color:#000000;display:inline;overflow:visible;visibility:visible;opacity:1;fill:none;fill-opacity:1;fill-rule:nonzero;stroke:#000000;stroke-width:1.92857766;stroke-linecap:round;stroke-linejoin:round;stroke-miterlimit:4;stroke-dasharray:none;stroke-dashoffset:0;stroke-opacity:1;marker:none;enable-background:accumulate"
           id="path4523-7"
           sodipodi:type="arc"
           sodipodi:cx="33.081745"
           sodipodi:cy="114.23618"
           sodipodi:rx="7.9856577"
           sodipodi:ry="7.9856577"
           sodipodi:start="4.712389"
           sodipodi:end="0"
           d="m 33.081745,106.25053 a 7.9856577,7.9856577 0 0 1 7.985658,7.98565"
           sodipodi:open="true" />
      </g>
      <g
         transform="matrix(1.330415,0,0,1.330415,-14.511188,-36.619297)"
         id="text4542"
         style="font-style:normal;font-variant:normal;font-weight:normal;font-stretch:normal;font-size:7.9375px;line-height:6.61458302px;font-family:'Noto Sans';-inkscape-font-specification:'Noto Sans';text-align:start;letter-spacing:0px;word-spacing:0px;writing-mode:lr-tb;text-anchor:start;fill:#000000;fill-opacity:1;stroke:none;stroke-width:0.19887277px;stroke-linecap:butt;stroke-linejoin:miter;stroke-opacity:1"
         aria-label="434 MHz">
        <path
           inkscape:connector-curvature="0"
           id="path4544"
           style="font-style:normal;font-variant:normal;font-weight:bold;font-stretch:normal;font-family:'Noto Sans';-inkscape-font-specification:'Noto Sans';stroke-width:0.19887277px"
           d="M 50.726439,112.22348 H 50.04431 v 1.17434 h -1.170471 v -1.17434 h -2.418457 v -0.83329 l 2.484344,-3.65869 h 1.104584 v 3.5618 h 0.682129 z m -1.8526,-0.93018 v -0.96118 q 0,-0.2403 0.01938,-0.69763 0.01938,-0.45734 0.03101,-0.53098 h -0.03101 q -0.143403,0.31781 -0.344941,0.62012 l -1.038696,1.56967 z" />
        <path
           inkscape:connector-curvature="0"
           id="path4546"
           style="font-style:normal;font-variant:normal;font-weight:bold;font-stretch:normal;font-family:'Noto Sans';-inkscape-font-specification:'Noto Sans';stroke-width:0.19887277px"
           d="m 54.919982,108.99887 q 0,0.53097 -0.321686,0.90304 -0.321686,0.37207 -0.903046,0.5116 v 0.0233 q 0.686005,0.0853 1.038696,0.41858 0.352692,0.32944 0.352692,0.89142 0,0.81778 -0.592987,1.27512 -0.592987,0.45346 -1.693695,0.45346 -0.922424,0 -1.635559,-0.30619 v -1.01931 q 0.329437,0.16665 0.724762,0.2713 0.395324,0.10464 0.782898,0.10464 0.592987,0 0.875915,-0.20154 0.282929,-0.20153 0.282929,-0.64724 0,-0.3992 -0.325562,-0.56586 -0.325561,-0.16666 -1.038696,-0.16666 h -0.430206 v -0.91854 h 0.437957 q 0.658875,0 0.961182,-0.17054 0.306183,-0.1744 0.306183,-0.59298 0,-0.64338 -0.806152,-0.64338 -0.279053,0 -0.569733,0.093 -0.286804,0.093 -0.639496,0.32169 l -0.55423,-0.82553 q 0.775147,-0.55811 1.848725,-0.55811 0.879791,0 1.387512,0.35657 0.511597,0.35657 0.511597,0.99219 z" />
        <path
           inkscape:connector-curvature="0"
           id="path4548"
           style="font-style:normal;font-variant:normal;font-weight:bold;font-stretch:normal;font-family:'Noto Sans';-inkscape-font-specification:'Noto Sans';stroke-width:0.19887277px"
           d="m 59.811156,112.22348 h -0.682129 v 1.17434 h -1.170471 v -1.17434 h -2.418457 v -0.83329 l 2.484344,-3.65869 h 1.104584 v 3.5618 h 0.682129 z m -1.8526,-0.93018 v -0.96118 q 0,-0.2403 0.01938,-0.69763 0.01938,-0.45734 0.03101,-0.53098 h -0.03101 q -0.143402,0.31781 -0.34494,0.62012 L 56.5943,111.2933 Z" />
        <path
           inkscape:connector-curvature="0"
           id="path4550"
           style="font-style:normal;font-variant:normal;font-weight:bold;font-stretch:normal;font-family:'Noto Sans';-inkscape-font-specification:'Noto Sans';stroke-width:0.19887277px"
           d="m 65.120909,113.39782 -1.364258,-4.44546 h -0.03488 q 0.07364,1.3565 0.07364,1.80996 v 2.6355 h -1.073578 v -5.66632 h 1.635559 l 1.341003,4.33307 h 0.02325 l 1.422394,-4.33307 h 1.635559 v 5.66632 h -1.120087 v -2.682 q 0,-0.18991 0.0039,-0.43796 0.0078,-0.24805 0.05426,-1.31775 h -0.03488 l -1.461151,4.43771 z" />
        <path
           inkscape:connector-curvature="0"
           id="path4552"
           style="font-style:normal;font-variant:normal;font-weight:bold;font-stretch:normal;font-family:'Noto Sans';-inkscape-font-specification:'Noto Sans';stroke-width:0.19887277px"
           d="m 74.852873,113.39782 h -1.197601 v -2.44558 h -2.244049 v 2.44558 h -1.201477 v -5.66632 h 1.201477 v 2.2208 h 2.244049 v -2.2208 h 1.197601 z" />
        <path
           inkscape:connector-curvature="0"
           id="path4554"
           style="font-style:normal;font-variant:normal;font-weight:bold;font-stretch:normal;font-family:'Noto Sans';-inkscape-font-specification:'Noto Sans';stroke-width:0.19887277px"
           d="m 79.209197,113.39782 h -3.422272 v -0.69763 l 2.007629,-2.73239 h -1.887481 v -0.90305 h 3.23236 v 0.7674 l -1.953369,2.66263 h 2.023133 z" />
      </g>
    </g>
  </g>
</svg>
